<?xml version="1.0" encoding="UTF-8"?>
<svg xmlns="http://www.w3.org/2000/svg" xmlns:xlink="http://www.w3.org/1999/xlink" width="640" height="40" viewBox="0 0 640 40">
<path fill-rule="nonzero" fill="rgb(0%, 0%, 0%)" fill-opacity="1" d="M 0 0 L 20 0 L 20 20 L 0 20 Z M 0 0 "/>
<path fill-rule="nonzero" fill="rgb(50%, 50%, 50%)" fill-opacity="1" d="M 20 0 L 40 0 L 40 20 L 20 20 Z M 20 0 "/>
<path fill-rule="nonzero" fill="rgb(0%, 0%, 0%)" fill-opacity="1" d="M 40 0 L 60 0 L 60 20 L 40 20 Z M 40 0 "/>
<path fill-rule="nonzero" fill="rgb(50%, 50%, 50%)" fill-opacity="1" d="M 60 0 L 80 0 L 80 20 L 60 20 Z M 60 0 "/>
<path fill-rule="nonzero" fill="rgb(0%, 0%, 0%)" fill-opacity="1" d="M 80 0 L 100 0 L 100 20 L 80 20 Z M 80 0 "/>
<path fill-rule="nonzero" fill="rgb(50%, 50%, 50%)" fill-opacity="1" d="M 100 0 L 120 0 L 120 20 L 100 20 Z M 100 0 "/>
<path fill-rule="nonzero" fill="rgb(0%, 0%, 0%)" fill-opacity="1" d="M 120 0 L 140 0 L 140 20 L 120 20 Z M 120 0 "/>
<path fill-rule="nonzero" fill="rgb(50%, 50%, 50%)" fill-opacity="1" d="M 140 0 L 160 0 L 160 20 L 140 20 Z M 140 0 "/>
<path fill-rule="nonzero" fill="rgb(0%, 0%, 0%)" fill-opacity="1" d="M 160 0 L 180 0 L 180 20 L 160 20 Z M 160 0 "/>
<path fill-rule="nonzero" fill="rgb(50%, 50%, 50%)" fill-opacity="1" d="M 180 0 L 200 0 L 200 20 L 180 20 Z M 180 0 "/>
<path fill-rule="nonzero" fill="rgb(0%, 0%, 0%)" fill-opacity="1" d="M 200 0 L 220 0 L 220 20 L 200 20 Z M 200 0 "/>
<path fill-rule="nonzero" fill="rgb(50%, 50%, 50%)" fill-opacity="1" d="M 220 0 L 240 0 L 240 20 L 220 20 Z M 220 0 "/>
<path fill-rule="nonzero" fill="rgb(0%, 0%, 0%)" fill-opacity="1" d="M 240 0 L 260 0 L 260 20 L 240 20 Z M 240 0 "/>
<path fill-rule="nonzero" fill="rgb(50%, 50%, 50%)" fill-opacity="1" d="M 260 0 L 280 0 L 280 20 L 260 20 Z M 260 0 "/>
<path fill-rule="nonzero" fill="rgb(0%, 0%, 0%)" fill-opacity="1" d="M 280 0 L 300 0 L 300 20 L 280 20 Z M 280 0 "/>
<path fill-rule="nonzero" fill="rgb(50%, 50%, 50%)" fill-opacity="1" d="M 300 0 L 320 0 L 320 20 L 300 20 Z M 300 0 "/>
<path fill-rule="nonzero" fill="rgb(0%, 0%, 0%)" fill-opacity="1" d="M 320 0 L 340 0 L 340 20 L 320 20 Z M 320 0 "/>
<path fill-rule="nonzero" fill="rgb(50%, 50%, 50%)" fill-opacity="1" d="M 340 0 L 360 0 L 360 20 L 340 20 Z M 340 0 "/>
<path fill-rule="nonzero" fill="rgb(0%, 0%, 0%)" fill-opacity="1" d="M 360 0 L 380 0 L 380 20 L 360 20 Z M 360 0 "/>
<path fill-rule="nonzero" fill="rgb(50%, 50%, 50%)" fill-opacity="1" d="M 380 0 L 400 0 L 400 20 L 380 20 Z M 380 0 "/>
<path fill-rule="nonzero" fill="rgb(0%, 0%, 0%)" fill-opacity="1" d="M 400 0 L 420 0 L 420 20 L 400 20 Z M 400 0 "/>
<path fill-rule="nonzero" fill="rgb(50%, 50%, 50%)" fill-opacity="1" d="M 420 0 L 440 0 L 440 20 L 420 20 Z M 420 0 "/>
<path fill-rule="nonzero" fill="rgb(0%, 0%, 0%)" fill-opacity="1" d="M 440 0 L 460 0 L 460 20 L 440 20 Z M 440 0 "/>
<path fill-rule="nonzero" fill="rgb(50%, 50%, 50%)" fill-opacity="1" d="M 460 0 L 480 0 L 480 20 L 460 20 Z M 460 0 "/>
<path fill-rule="nonzero" fill="rgb(0%, 0%, 0%)" fill-opacity="1" d="M 480 0 L 500 0 L 500 20 L 480 20 Z M 480 0 "/>
<path fill-rule="nonzero" fill="rgb(50%, 50%, 50%)" fill-opacity="1" d="M 500 0 L 520 0 L 520 20 L 500 20 Z M 500 0 "/>
<path fill-rule="nonzero" fill="rgb(0%, 0%, 0%)" fill-opacity="1" d="M 520 0 L 540 0 L 540 20 L 520 20 Z M 520 0 "/>
<path fill-rule="nonzero" fill="rgb(50%, 50%, 50%)" fill-opacity="1" d="M 540 0 L 560 0 L 560 20 L 540 20 Z M 540 0 "/>
<path fill-rule="nonzero" fill="rgb(0%, 0%, 0%)" fill-opacity="1" d="M 560 0 L 580 0 L 580 20 L 560 20 Z M 560 0 "/>
<path fill-rule="nonzero" fill="rgb(50%, 50%, 50%)" fill-opacity="1" d="M 580 0 L 600 0 L 600 20 L 580 20 Z M 580 0 "/>
<path fill-rule="nonzero" fill="rgb(0%, 0%, 0%)" fill-opacity="1" d="M 600 0 L 620 0 L 620 20 L 600 20 Z M 600 0 "/>
<path fill-rule="nonzero" fill="rgb(50%, 50%, 50%)" fill-opacity="1" d="M 620 0 L 640 0 L 640 20 L 620 20 Z M 620 0 "/>
<path fill-rule="nonzero" fill="rgb(50%, 50%, 50%)" fill-opacity="1" d="M 0 20 L 20 20 L 20 40 L 0 40 Z M 0 20 "/>
<path fill-rule="nonzero" fill="rgb(0%, 0%, 0%)" fill-opacity="1" d="M 20 20 L 40 20 L 40 40 L 20 40 Z M 20 20 "/>
<path fill-rule="nonzero" fill="rgb(50%, 50%, 50%)" fill-opacity="1" d="M 40 20 L 60 20 L 60 40 L 40 40 Z M 40 20 "/>
<path fill-rule="nonzero" fill="rgb(0%, 0%, 0%)" fill-opacity="1" d="M 60 20 L 80 20 L 80 40 L 60 40 Z M 60 20 "/>
<path fill-rule="nonzero" fill="rgb(50%, 50%, 50%)" fill-opacity="1" d="M 80 20 L 100 20 L 100 40 L 80 40 Z M 80 20 "/>
<path fill-rule="nonzero" fill="rgb(0%, 0%, 0%)" fill-opacity="1" d="M 100 20 L 120 20 L 120 40 L 100 40 Z M 100 20 "/>
<path fill-rule="nonzero" fill="rgb(50%, 50%, 50%)" fill-opacity="1" d="M 120 20 L 140 20 L 140 40 L 120 40 Z M 120 20 "/>
<path fill-rule="nonzero" fill="rgb(0%, 0%, 0%)" fill-opacity="1" d="M 140 20 L 160 20 L 160 40 L 140 40 Z M 140 20 "/>
<path fill-rule="nonzero" fill="rgb(50%, 50%, 50%)" fill-opacity="1" d="M 160 20 L 180 20 L 180 40 L 160 40 Z M 160 20 "/>
<path fill-rule="nonzero" fill="rgb(0%, 0%, 0%)" fill-opacity="1" d="M 180 20 L 200 20 L 200 40 L 180 40 Z M 180 20 "/>
<path fill-rule="nonzero" fill="rgb(50%, 50%, 50%)" fill-opacity="1" d="M 200 20 L 220 20 L 220 40 L 200 40 Z M 200 20 "/>
<path fill-rule="nonzero" fill="rgb(0%, 0%, 0%)" fill-opacity="1" d="M 220 20 L 240 20 L 240 40 L 220 40 Z M 220 20 "/>
<path fill-rule="nonzero" fill="rgb(50%, 50%, 50%)" fill-opacity="1" d="M 240 20 L 260 20 L 260 40 L 240 40 Z M 240 20 "/>
<path fill-rule="nonzero" fill="rgb(0%, 0%, 0%)" fill-opacity="1" d="M 260 20 L 280 20 L 280 40 L 260 40 Z M 260 20 "/>
<path fill-rule="nonzero" fill="rgb(50%, 50%, 50%)" fill-opacity="1" d="M 280 20 L 300 20 L 300 40 L 280 40 Z M 280 20 "/>
<path fill-rule="nonzero" fill="rgb(0%, 0%, 0%)" fill-opacity="1" d="M 300 20 L 320 20 L 320 40 L 300 40 Z M 300 20 "/>
<path fill-rule="nonzero" fill="rgb(50%, 50%, 50%)" fill-opacity="1" d="M 320 20 L 340 20 L 340 40 L 320 40 Z M 320 20 "/>
<path fill-rule="nonzero" fill="rgb(0%, 0%, 0%)" fill-opacity="1" d="M 340 20 L 360 20 L 360 40 L 340 40 Z M 340 20 "/>
<path fill-rule="nonzero" fill="rgb(50%, 50%, 50%)" fill-opacity="1" d="M 360 20 L 380 20 L 380 40 L 360 40 Z M 360 20 "/>
<path fill-rule="nonzero" fill="rgb(0%, 0%, 0%)" fill-opacity="1" d="M 380 20 L 400 20 L 400 40 L 380 40 Z M 380 20 "/>
<path fill-rule="nonzero" fill="rgb(50%, 50%, 50%)" fill-opacity="1" d="M 400 20 L 420 20 L 420 40 L 400 40 Z M 400 20 "/>
<path fill-rule="nonzero" fill="rgb(0%, 0%, 0%)" fill-opacity="1" d="M 420 20 L 440 20 L 440 40 L 420 40 Z M 420 20 "/>
<path fill-rule="nonzero" fill="rgb(50%, 50%, 50%)" fill-opacity="1" d="M 440 20 L 460 20 L 460 40 L 440 40 Z M 440 20 "/>
<path fill-rule="nonzero" fill="rgb(0%, 0%, 0%)" fill-opacity="1" d="M 460 20 L 480 20 L 480 40 L 460 40 Z M 460 20 "/>
<path fill-rule="nonzero" fill="rgb(50%, 50%, 50%)" fill-opacity="1" d="M 480 20 L 500 20 L 500 40 L 480 40 Z M 480 20 "/>
<path fill-rule="nonzero" fill="rgb(0%, 0%, 0%)" fill-opacity="1" d="M 500 20 L 520 20 L 520 40 L 500 40 Z M 500 20 "/>
<path fill-rule="nonzero" fill="rgb(50%, 50%, 50%)" fill-opacity="1" d="M 520 20 L 540 20 L 540 40 L 520 40 Z M 520 20 "/>
<path fill-rule="nonzero" fill="rgb(0%, 0%, 0%)" fill-opacity="1" d="M 540 20 L 560 20 L 560 40 L 540 40 Z M 540 20 "/>
<path fill-rule="nonzero" fill="rgb(50%, 50%, 50%)" fill-opacity="1" d="M 560 20 L 580 20 L 580 40 L 560 40 Z M 560 20 "/>
<path fill-rule="nonzero" fill="rgb(0%, 0%, 0%)" fill-opacity="1" d="M 580 20 L 600 20 L 600 40 L 580 40 Z M 580 20 "/>
<path fill-rule="nonzero" fill="rgb(50%, 50%, 50%)" fill-opacity="1" d="M 600 20 L 620 20 L 620 40 L 600 40 Z M 600 20 "/>
<path fill-rule="nonzero" fill="rgb(0%, 0%, 0%)" fill-opacity="1" d="M 620 20 L 640 20 L 640 40 L 620 40 Z M 620 20 "/>
<path fill-rule="nonzero" fill="rgb(0%, 0%, 0%)" fill-opacity="1" d="M 0 0 L 40 0 L 40 40 L 0 40 Z M 0 0 "/>
<path fill-rule="nonzero" fill="rgb(100%, 100%, 100%)" fill-opacity="1" d="M 35 20 C 35 28.285156 28.285156 35 20 35 C 11.714844 35 5 28.285156 5 20 C 5 11.714844 11.714844 5 20 5 C 28.285156 5 35 11.714844 35 20 "/>
<path fill-rule="nonzero" fill="rgb(0%, 0%, 0%)" fill-opacity="1" d="M 40 0 L 80 0 L 80 40 L 40 40 Z M 40 0 "/>
<path fill-rule="nonzero" fill="rgb(40%, 40%, 40%)" fill-opacity="1" d="M 40 0 L 80 0 L 80 40 L 40 40 Z M 40 0 "/>
<path fill-rule="nonzero" fill="rgb(100%, 100%, 100%)" fill-opacity="1" d="M 75 20 C 75 28.285156 68.285156 35 60 35 C 51.714844 35 45 28.285156 45 20 C 45 11.714844 51.714844 5 60 5 C 68.285156 5 75 11.714844 75 20 "/>
<path fill-rule="nonzero" fill="rgb(100%, 100%, 100%)" fill-opacity="1" d="M 60 30 L 40 30 L 40 10 L 60 10 Z M 60 30 "/>
<path fill-rule="nonzero" fill="rgb(0%, 0%, 0%)" fill-opacity="1" d="M 80 0 L 120 0 L 120 40 L 80 40 Z M 80 0 "/>
<path fill-rule="nonzero" fill="rgb(40%, 40%, 40%)" fill-opacity="1" d="M 80 0 L 120 0 L 120 40 L 80 40 Z M 80 0 "/>
<path fill-rule="nonzero" fill="rgb(100%, 100%, 100%)" fill-opacity="1" d="M 115 20 C 115 28.285156 108.285156 35 100 35 C 91.714844 35 85 28.285156 85 20 C 85 11.714844 91.714844 5 100 5 C 108.285156 5 115 11.714844 115 20 "/>
<path fill-rule="nonzero" fill="rgb(100%, 100%, 100%)" fill-opacity="1" d="M 100 10 L 120 10 L 120 30 L 100 30 Z M 100 10 "/>
<path fill-rule="nonzero" fill="rgb(0%, 0%, 0%)" fill-opacity="1" d="M 120 0 L 160 0 L 160 40 L 120 40 Z M 120 0 "/>
<path fill-rule="nonzero" fill="rgb(40%, 40%, 40%)" fill-opacity="1" d="M 120 0 L 160 0 L 160 40 L 120 40 Z M 120 0 "/>
<path fill-rule="nonzero" fill="rgb(100%, 100%, 100%)" fill-opacity="1" d="M 155 20 C 155 28.285156 148.285156 35 140 35 C 131.714844 35 125 28.285156 125 20 C 125 11.714844 131.714844 5 140 5 C 148.285156 5 155 11.714844 155 20 "/>
<path fill-rule="nonzero" fill="rgb(100%, 100%, 100%)" fill-opacity="1" d="M 130 20 L 130 0 L 150 0 L 150 20 Z M 130 20 "/>
<path fill-rule="nonzero" fill="rgb(0%, 0%, 0%)" fill-opacity="1" d="M 160 0 L 200 0 L 200 40 L 160 40 Z M 160 0 "/>
<path fill-rule="nonzero" fill="rgb(40%, 40%, 40%)" fill-opacity="1" d="M 160 0 L 200 0 L 200 40 L 160 40 Z M 160 0 "/>
<path fill-rule="nonzero" fill="rgb(100%, 100%, 100%)" fill-opacity="1" d="M 195 20 C 195 28.285156 188.285156 35 180 35 C 171.714844 35 165 28.285156 165 20 C 165 11.714844 171.714844 5 180 5 C 188.285156 5 195 11.714844 195 20 "/>
<path fill-rule="nonzero" fill="rgb(100%, 100%, 100%)" fill-opacity="1" d="M 190 20 L 190 40 L 170 40 L 170 20 Z M 190 20 "/>
<path fill-rule="nonzero" fill="rgb(0%, 0%, 0%)" fill-opacity="1" d="M 200 0 L 240 0 L 240 40 L 200 40 Z M 200 0 "/>
<path fill-rule="nonzero" fill="rgb(0%, 0%, 0%)" fill-opacity="1" d="M 240 0 L 280 0 L 280 40 L 240 40 Z M 240 0 "/>
<path fill-rule="nonzero" fill="rgb(40%, 40%, 40%)" fill-opacity="1" d="M 240 0 L 280 0 L 280 40 L 240 40 Z M 240 0 "/>
<path fill-rule="nonzero" fill="rgb(100%, 100%, 100%)" fill-opacity="1" d="M 270 20 C 270 25.523438 265.523438 30 260 30 C 254.476562 30 250 25.523438 250 20 C 250 14.476562 254.476562 10 260 10 C 265.523438 10 270 14.476562 270 20 "/>
<path fill-rule="nonzero" fill="rgb(100%, 100%, 100%)" fill-opacity="1" d="M 260 30 L 240 30 L 240 10 L 260 10 Z M 260 30 "/>
<path fill-rule="nonzero" fill="rgb(0%, 0%, 0%)" fill-opacity="1" d="M 280 0 L 320 0 L 320 40 L 280 40 Z M 280 0 "/>
<path fill-rule="nonzero" fill="rgb(40%, 40%, 40%)" fill-opacity="1" d="M 280 0 L 320 0 L 320 40 L 280 40 Z M 280 0 "/>
<path fill-rule="nonzero" fill="rgb(100%, 100%, 100%)" fill-opacity="1" d="M 310 20 C 310 25.523438 305.523438 30 300 30 C 294.476562 30 290 25.523438 290 20 C 290 14.476562 294.476562 10 300 10 C 305.523438 10 310 14.476562 310 20 "/>
<path fill-rule="nonzero" fill="rgb(100%, 100%, 100%)" fill-opacity="1" d="M 300 10 L 320 10 L 320 30 L 300 30 Z M 300 10 "/>
<path fill-rule="nonzero" fill="rgb(0%, 0%, 0%)" fill-opacity="1" d="M 320 0 L 360 0 L 360 40 L 320 40 Z M 320 0 "/>
<path fill-rule="nonzero" fill="rgb(40%, 40%, 40%)" fill-opacity="1" d="M 320 0 L 360 0 L 360 40 L 320 40 Z M 320 0 "/>
<path fill-rule="nonzero" fill="rgb(100%, 100%, 100%)" fill-opacity="1" d="M 350 20 C 350 25.523438 345.523438 30 340 30 C 334.476562 30 330 25.523438 330 20 C 330 14.476562 334.476562 10 340 10 C 345.523438 10 350 14.476562 350 20 "/>
<path fill-rule="nonzero" fill="rgb(100%, 100%, 100%)" fill-opacity="1" d="M 330 20 L 330 0 L 350 0 L 350 20 Z M 330 20 "/>
<path fill-rule="nonzero" fill="rgb(0%, 0%, 0%)" fill-opacity="1" d="M 360 0 L 400 0 L 400 40 L 360 40 Z M 360 0 "/>
<path fill-rule="nonzero" fill="rgb(40%, 40%, 40%)" fill-opacity="1" d="M 360 0 L 400 0 L 400 40 L 360 40 Z M 360 0 "/>
<path fill-rule="nonzero" fill="rgb(100%, 100%, 100%)" fill-opacity="1" d="M 390 20 C 390 25.523438 385.523438 30 380 30 C 374.476562 30 370 25.523438 370 20 C 370 14.476562 374.476562 10 380 10 C 385.523438 10 390 14.476562 390 20 "/>
<path fill-rule="nonzero" fill="rgb(100%, 100%, 100%)" fill-opacity="1" d="M 390 20 L 390 40 L 370 40 L 370 20 Z M 390 20 "/>
<path fill-rule="nonzero" fill="rgb(0%, 0%, 0%)" fill-opacity="1" d="M 400 0 L 440 0 L 440 40 L 400 40 Z M 400 0 "/>
<path fill-rule="nonzero" fill="rgb(40%, 40%, 40%)" fill-opacity="1" d="M 400 0 L 440 0 L 440 40 L 400 40 Z M 400 0 "/>
<path fill-rule="nonzero" fill="rgb(100%, 100%, 100%)" fill-opacity="1" d="M 430 20 C 430 25.523438 425.523438 30 420 30 C 414.476562 30 410 25.523438 410 20 C 410 14.476562 414.476562 10 420 10 C 425.523438 10 430 14.476562 430 20 "/>
<path fill-rule="nonzero" fill="rgb(100%, 100%, 100%)" fill-opacity="1" d="M 420 10 L 440 10 L 440 30 L 420 30 Z M 420 10 "/>
<path fill-rule="nonzero" fill="rgb(100%, 100%, 100%)" fill-opacity="1" d="M 410 20 L 410 0 L 430 0 L 430 20 Z M 410 20 "/>
<path fill-rule="nonzero" fill="rgb(0%, 0%, 0%)" fill-opacity="1" d="M 440 0 L 480 0 L 480 40 L 440 40 Z M 440 0 "/>
<path fill-rule="nonzero" fill="rgb(40%, 40%, 40%)" fill-opacity="1" d="M 440 0 L 480 0 L 480 40 L 440 40 Z M 440 0 "/>
<path fill-rule="nonzero" fill="rgb(100%, 100%, 100%)" fill-opacity="1" d="M 470 20 C 470 25.523438 465.523438 30 460 30 C 454.476562 30 450 25.523438 450 20 C 450 14.476562 454.476562 10 460 10 C 465.523438 10 470 14.476562 470 20 "/>
<path fill-rule="nonzero" fill="rgb(100%, 100%, 100%)" fill-opacity="1" d="M 460 10 L 480 10 L 480 30 L 460 30 Z M 460 10 "/>
<path fill-rule="nonzero" fill="rgb(100%, 100%, 100%)" fill-opacity="1" d="M 470 20 L 470 40 L 450 40 L 450 20 Z M 470 20 "/>
<path fill-rule="nonzero" fill="rgb(0%, 0%, 0%)" fill-opacity="1" d="M 480 0 L 520 0 L 520 40 L 480 40 Z M 480 0 "/>
<path fill-rule="nonzero" fill="rgb(40%, 40%, 40%)" fill-opacity="1" d="M 480 0 L 520 0 L 520 40 L 480 40 Z M 480 0 "/>
<path fill-rule="nonzero" fill="rgb(100%, 100%, 100%)" fill-opacity="1" d="M 510 20 C 510 25.523438 505.523438 30 500 30 C 494.476562 30 490 25.523438 490 20 C 490 14.476562 494.476562 10 500 10 C 505.523438 10 510 14.476562 510 20 "/>
<path fill-rule="nonzero" fill="rgb(100%, 100%, 100%)" fill-opacity="1" d="M 500 30 L 480 30 L 480 10 L 500 10 Z M 500 30 "/>
<path fill-rule="nonzero" fill="rgb(100%, 100%, 100%)" fill-opacity="1" d="M 510 20 L 510 40 L 490 40 L 490 20 Z M 510 20 "/>
<path fill-rule="nonzero" fill="rgb(0%, 0%, 0%)" fill-opacity="1" d="M 520 0 L 560 0 L 560 40 L 520 40 Z M 520 0 "/>
<path fill-rule="nonzero" fill="rgb(40%, 40%, 40%)" fill-opacity="1" d="M 520 0 L 560 0 L 560 40 L 520 40 Z M 520 0 "/>
<path fill-rule="nonzero" fill="rgb(100%, 100%, 100%)" fill-opacity="1" d="M 550 20 C 550 25.523438 545.523438 30 540 30 C 534.476562 30 530 25.523438 530 20 C 530 14.476562 534.476562 10 540 10 C 545.523438 10 550 14.476562 550 20 "/>
<path fill-rule="nonzero" fill="rgb(100%, 100%, 100%)" fill-opacity="1" d="M 530 20 L 530 0 L 550 0 L 550 20 Z M 530 20 "/>
<path fill-rule="nonzero" fill="rgb(100%, 100%, 100%)" fill-opacity="1" d="M 540 30 L 520 30 L 520 10 L 540 10 Z M 540 30 "/>
<path fill-rule="nonzero" fill="rgb(0%, 0%, 0%)" fill-opacity="1" d="M 560 0 L 600 0 L 600 40 L 560 40 Z M 560 0 "/>
<path fill-rule="nonzero" fill="rgb(40%, 40%, 40%)" fill-opacity="1" d="M 560 0 L 600 0 L 600 40 L 560 40 Z M 560 0 "/>
<path fill-rule="nonzero" fill="rgb(100%, 100%, 100%)" fill-opacity="1" d="M 590 20 C 590 25.523438 585.523438 30 580 30 C 574.476562 30 570 25.523438 570 20 C 570 14.476562 574.476562 10 580 10 C 585.523438 10 590 14.476562 590 20 "/>
<path fill-rule="nonzero" fill="rgb(100%, 100%, 100%)" fill-opacity="1" d="M 570 20 L 570 0 L 590 0 L 590 20 Z M 570 20 "/>
<path fill-rule="nonzero" fill="rgb(100%, 100%, 100%)" fill-opacity="1" d="M 590 20 L 590 40 L 570 40 L 570 20 Z M 590 20 "/>
<path fill-rule="nonzero" fill="rgb(0%, 0%, 0%)" fill-opacity="1" d="M 600 0 L 640 0 L 640 40 L 600 40 Z M 600 0 "/>
<path fill-rule="nonzero" fill="rgb(40%, 40%, 40%)" fill-opacity="1" d="M 600 0 L 640 0 L 640 40 L 600 40 Z M 600 0 "/>
<path fill-rule="nonzero" fill="rgb(100%, 100%, 100%)" fill-opacity="1" d="M 630 20 C 630 25.523438 625.523438 30 620 30 C 614.476562 30 610 25.523438 610 20 C 610 14.476562 614.476562 10 620 10 C 625.523438 10 630 14.476562 630 20 "/>
<path fill-rule="nonzero" fill="rgb(100%, 100%, 100%)" fill-opacity="1" d="M 620 10 L 640 10 L 640 30 L 620 30 Z M 620 10 "/>
<path fill-rule="nonzero" fill="rgb(100%, 100%, 100%)" fill-opacity="1" d="M 620 30 L 600 30 L 600 10 L 620 10 Z M 620 30 "/>
</svg>
